<?xml version="1.0" encoding="utf-8"?>

<!-- Uploaded to: SVG Repo, www.svgrepo.com, Generator: SVG Repo Mixer Tools -->
<svg version="1.1" id="Icons" xmlns="http://www.w3.org/2000/svg" xmlns:xlink="http://www.w3.org/1999/xlink" 
	 viewBox="0 0 32 32" xml:space="preserve">
<style type="text/css">
	.st0{fill:none;stroke:#000000;stroke-width:2;stroke-linecap:round;stroke-linejoin:round;stroke-miterlimit:10;}
</style>
<path class="st0" d="M3.6,10.4c0.8,0.8,2.2,0.8,3.1,0L8,9.1l1.3,1.3c0.8,0.8,2.2,0.8,3.1,0c0.8-0.8,0.8-2.2,0-3.1l-1.3-1.3L8,3
	L4.9,6.1L3.6,7.3C2.8,8.2,2.8,9.5,3.6,10.4z"/>
<path class="st0" d="M28.4,4.7c-0.8-0.9-2.2-0.9-3.1,0L24,6.1l-1.3-1.4c-0.8-0.9-2.2-0.9-3.1,0s-0.8,2.5,0,3.4l1.3,1.4L24,13
	l3.1-3.4l1.3-1.4C29.2,7.2,29.2,5.7,28.4,4.7z"/>
<line class="st0" x1="7" y1="14" x2="9" y2="14"/>
<line class="st0" x1="8" y1="10" x2="8" y2="14"/>
<line class="st0" x1="23" y1="29" x2="25" y2="29"/>
<line class="st0" x1="24" y1="25" x2="24" y2="29"/>
<path class="st0" d="M26.5,21c-0.1,0-0.2,0-0.4,0c0.2-0.4,0.4-0.8,0.4-1.3c0-1.4-1.1-2.5-2.5-2.5c-1.4,0-2.5,1.1-2.5,2.5
	c0,0.5,0.1,0.9,0.4,1.3c-0.1,0-0.2,0-0.4,0c-1.4,0-2.5,1.1-2.5,2.5c0,1.4,1.1,2.5,2.5,2.5c1.2,0,2.2-0.9,2.4-2h0.1
	c0.2,1.1,1.2,2,2.4,2c1.4,0,2.5-1.1,2.5-2.5C29,22.1,27.9,21,26.5,21z"/>
<polygon class="st0" points="8,18 3,23.5 8,29 13,23.5 "/>
</svg>